<svg width="280" height="92" viewBox="0 0 280 92" fill="none" xmlns="http://www.w3.org/2000/svg">
<path d="M42.5884 72.8609L6.18842 34.9109C2.49973 31.0653 3.75364 23.0582 8.35335 21.1753L47.04 5.30528C47.8595 4.85835 48.7377 4.71326 49.6018 4.88208C50.4658 5.0509 51.2907 5.52875 52.0082 6.27597C52.7254 7.0232 53.3147 8.01824 53.7265 9.17851C54.1384 10.3388 54.3614 11.6308 54.3768 12.9474L52.0841 66.7644C51.8122 73.1523 46.2771 76.7065 42.5884 72.8609Z" fill="#E9327C"/>
<path d="M31.0435 82.2296L9.59911 18.8448C9.1089 17.3948 8.8932 15.7682 8.97576 14.1446C9.05832 12.5211 9.43595 10.9635 10.067 9.64367C10.698 8.32387 11.558 7.2931 12.552 6.66505C13.546 6.03699 14.6355 5.83606 15.7003 6.08443L55.442 15.3549C56.3569 15.5684 57.2253 16.1071 57.9758 16.9266C58.7262 17.7462 59.3371 18.8233 59.7585 20.0693C60.1797 21.3153 60.3995 22.6947 60.3993 24.094C60.3991 25.4933 60.1791 26.8726 59.7577 28.1184L41.4502 82.2327C40.9585 83.6786 40.2127 84.8918 39.2946 85.7385C38.3765 86.5855 37.3218 87.0333 36.2462 87.0329C35.1707 87.0326 34.116 86.5843 33.1981 85.737C32.2802 84.8893 31.5347 83.6759 31.0435 82.2296Z" fill="#1DACE3"/>
<path d="M54.2794 15.0819L34.4684 10.4604L10.1449 20.4424L19.8536 49.1495L42.5884 72.8609C43.0899 73.3783 43.6416 73.7745 44.2237 74.0355L52.8591 48.5116L54.2794 15.0819Z" fill="#001A49"/>
<path d="M84.75 58C84.4167 58 84.1167 57.8833 83.85 57.65C83.6167 57.4167 83.5 57.1167 83.5 56.75V24.25C83.5 23.8833 83.6167 23.5833 83.85 23.35C84.1167 23.1167 84.4167 23 84.75 23H90.15C90.6833 23 91.0833 23.15 91.35 23.45C91.65 23.7167 91.8333 23.9333 91.9 24.1L100.7 39.9L109.5 24.1C109.6 23.9333 109.767 23.7167 110 23.45C110.267 23.15 110.683 23 111.25 23H116.6C116.967 23 117.267 23.1167 117.5 23.35C117.767 23.5833 117.9 23.8833 117.9 24.25V56.75C117.9 57.1167 117.767 57.4167 117.5 57.65C117.267 57.8833 116.967 58 116.6 58H110.65C110.283 58 109.967 57.8833 109.7 57.65C109.467 57.4167 109.35 57.1167 109.35 56.75V38L103.7 48.45C103.567 48.75 103.367 49.0167 103.1 49.25C102.833 49.4833 102.467 49.6 102 49.6H99.4C98.9333 49.6 98.5667 49.4833 98.3 49.25C98.0333 49.0167 97.8167 48.75 97.65 48.45L92 38V56.75C92 57.1167 91.8833 57.4167 91.65 57.65C91.4167 57.8833 91.1167 58 90.75 58H84.75ZM126.107 58C125.741 58 125.441 57.8833 125.207 57.65C124.974 57.4167 124.857 57.1167 124.857 56.75V24.25C124.857 23.8833 124.974 23.5833 125.207 23.35C125.441 23.1167 125.741 23 126.107 23H149.457C149.824 23 150.124 23.1167 150.357 23.35C150.591 23.5833 150.707 23.8833 150.707 24.25V28.95C150.707 29.3167 150.591 29.6167 150.357 29.85C150.124 30.0833 149.824 30.2 149.457 30.2H133.507V36.95H148.357C148.724 36.95 149.024 37.0833 149.257 37.35C149.491 37.5833 149.607 37.8833 149.607 38.25V42.6C149.607 42.9333 149.491 43.2333 149.257 43.5C149.024 43.7333 148.724 43.85 148.357 43.85H133.507V50.8H149.857C150.224 50.8 150.524 50.9167 150.757 51.15C150.991 51.3833 151.107 51.6833 151.107 52.05V56.75C151.107 57.1167 150.991 57.4167 150.757 57.65C150.524 57.8833 150.224 58 149.857 58H126.107ZM162.391 58C161.824 58 161.374 57.8333 161.041 57.5C160.708 57.1667 160.508 56.7833 160.441 56.35L154.991 24.4C154.958 24.3333 154.941 24.2667 154.941 24.2C154.941 24.1333 154.941 24.0833 154.941 24.05C154.941 23.7833 155.041 23.55 155.241 23.35C155.474 23.1167 155.724 23 155.991 23H162.191C163.124 23 163.641 23.3667 163.741 24.1L166.991 43.65L170.591 32.1C170.691 31.8333 170.858 31.55 171.091 31.25C171.324 30.9167 171.708 30.75 172.241 30.75H175.841C176.408 30.75 176.808 30.9167 177.041 31.25C177.274 31.55 177.424 31.8333 177.491 32.1L181.091 43.6L184.341 24.1C184.441 23.3667 184.958 23 185.891 23H192.091C192.391 23 192.641 23.1167 192.841 23.35C193.041 23.55 193.141 23.7833 193.141 24.05C193.141 24.0833 193.141 24.1333 193.141 24.2C193.141 24.2667 193.141 24.3333 193.141 24.4L187.691 56.35C187.624 56.7833 187.424 57.1667 187.091 57.5C186.758 57.8333 186.308 58 185.741 58H180.991C180.424 58 179.991 57.85 179.691 57.55C179.391 57.25 179.191 56.9667 179.091 56.7L174.041 42.4L168.991 56.7C168.891 56.9667 168.691 57.25 168.391 57.55C168.124 57.85 167.708 58 167.141 58H162.391ZM211.002 58.5C208.069 58.5 205.485 57.9667 203.252 56.9C201.019 55.8333 199.269 54.3667 198.002 52.5C196.769 50.6 196.152 48.4333 196.152 46C196.152 44.9667 196.302 43.95 196.602 42.95C196.935 41.9167 197.335 40.95 197.802 40.05C198.269 39.1167 198.735 38.3 199.202 37.6C199.669 36.8667 200.052 36.2833 200.352 35.85L209.152 24C209.319 23.8333 209.535 23.6333 209.802 23.4C210.069 23.1333 210.452 23 210.952 23H217.602C217.902 23 218.152 23.1167 218.352 23.35C218.552 23.55 218.652 23.8 218.652 24.1C218.652 24.2333 218.635 24.3667 218.602 24.5C218.569 24.6 218.519 24.6833 218.452 24.75L211.702 33.95C211.902 33.8833 212.135 33.85 212.402 33.85C212.702 33.8167 212.969 33.8 213.202 33.8C214.702 33.8667 216.185 34.2 217.652 34.8C219.119 35.4 220.452 36.2167 221.652 37.25C222.852 38.2833 223.802 39.5333 224.502 41C225.235 42.4333 225.602 44.05 225.602 45.85C225.602 48.15 225.002 50.2667 223.802 52.2C222.602 54.1 220.902 55.6333 218.702 56.8C216.535 57.9333 213.969 58.5 211.002 58.5ZM210.952 51.3C211.919 51.3 212.819 51.1 213.652 50.7C214.485 50.2667 215.152 49.6667 215.652 48.9C216.185 48.1 216.452 47.1167 216.452 45.95C216.452 44.7833 216.202 43.8167 215.702 43.05C215.202 42.25 214.535 41.65 213.702 41.25C212.869 40.85 211.952 40.65 210.952 40.65C209.952 40.65 209.019 40.85 208.152 41.25C207.319 41.65 206.652 42.25 206.152 43.05C205.652 43.8167 205.402 44.7833 205.402 45.95C205.402 47.1167 205.652 48.1 206.152 48.9C206.685 49.6667 207.369 50.2667 208.202 50.7C209.035 51.1 209.952 51.3 210.952 51.3Z" fill="#001A49"/>
</svg>
